<svg preserveAspectRatio="none" width="100%" height="100%" overflow="visible" style="display: block;" viewBox="0 0 18.2357 14.8705" fill="none" xmlns="http://www.w3.org/2000/svg">
<g id="Group">
<path id="Vector" d="M18.2357 12.5017V4.62587C18.2357 3.37644 17.2206 2.36128 15.9711 2.36128H13.2231L13.186 2.2051C12.8848 0.907325 11.7432 0 10.4082 0H7.82754C6.49258 0 5.35099 0.907325 5.04978 2.2051L5.0126 2.36128H2.26459C1.01516 2.36128 0 3.37644 0 4.62587V12.5017C0 13.807 1.0635 14.8705 2.36871 14.8705H15.8596C17.1722 14.8742 18.2357 13.8107 18.2357 12.5017ZM16.9603 12.5017C16.9603 13.1042 16.4694 13.595 15.867 13.595H2.37243C1.77003 13.595 1.27918 13.1042 1.27918 12.5017V4.62587C1.27918 4.08296 1.72169 3.63674 2.26831 3.63674H5.52204C5.81952 3.63674 6.0761 3.43222 6.14303 3.14217L6.2955 2.49514C6.46283 1.77746 7.09498 1.27546 7.83125 1.27546H10.4119C11.1482 1.27546 11.7803 1.77746 11.9477 2.49514L12.1001 3.14217C12.1671 3.43222 12.4237 3.63674 12.7211 3.63674H15.9749C16.5178 3.63674 16.964 4.07924 16.964 4.62587V12.5017H16.9603Z" fill="var(--fill-0, #7556D5)"/>
<path id="Vector_2" d="M9.11775 4.69653C6.94612 4.69653 5.17609 6.46284 5.17609 8.63818C5.17609 10.8098 6.9424 12.5798 9.11775 12.5798C11.2894 12.5798 13.0594 10.8135 13.0594 8.63818C13.0557 6.46655 11.2894 4.69653 9.11775 4.69653ZM9.11775 11.3007C7.64893 11.3007 6.45155 10.107 6.45155 8.63447C6.45155 7.16564 7.64521 5.96827 9.11775 5.96827C10.5866 5.96827 11.7839 7.16192 11.7839 8.63447C11.7802 10.107 10.5866 11.3007 9.11775 11.3007Z" fill="var(--fill-0, #7556D5)"/>
<path id="Vector_3" d="M3.02712 4.69653H3.00481C2.65154 4.69653 2.36893 4.98286 2.36893 5.33612C2.36893 5.68938 2.65526 5.97199 3.00481 5.97199H3.02712C3.38038 5.97199 3.66671 5.68566 3.66671 5.33612C3.66299 4.98286 3.37666 4.69653 3.02712 4.69653Z" fill="var(--fill-0, #7556D5)"/>
</g>
</svg>
