<svg width="24" height="24" viewBox="0 0 24 24" fill="none" xmlns="http://www.w3.org/2000/svg">
<path d="M11.75 22C10.0167 22 8.54167 21.3917 7.325 20.175C6.10833 18.9583 5.5 17.4833 5.5 15.75V6.5C5.5 5.25 5.9375 4.1875 6.8125 3.3125C7.6875 2.4375 8.75 2 10 2C11.25 2 12.3125 2.4375 13.1875 3.3125C14.0625 4.1875 14.5 5.25 14.5 6.5V13C14.5 13.2833 14.4042 13.5208 14.2125 13.7125C14.0208 13.9042 13.7833 14 13.5 14C13.2167 14 12.9792 13.9042 12.7875 13.7125C12.5958 13.5208 12.5 13.2833 12.5 13V6.5C12.4833 5.8 12.2375 5.20833 11.7625 4.725C11.2875 4.24167 10.7 4 10 4C9.3 4 8.70833 4.24167 8.225 4.725C7.74167 5.20833 7.5 5.8 7.5 6.5V15.75C7.48333 16.9333 7.89167 17.9375 8.725 18.7625C9.55833 19.5875 10.5667 20 11.75 20C12.0333 20 12.3 19.9708 12.55 19.9125C12.8 19.8542 13.0417 19.7833 13.275 19.7C13.5417 19.6 13.8 19.6042 14.05 19.7125C14.3 19.8208 14.475 20.0083 14.575 20.275C14.675 20.5417 14.6708 20.8 14.5625 21.05C14.4542 21.3 14.2667 21.475 14 21.575C13.65 21.7083 13.2875 21.8125 12.9125 21.8875C12.5375 21.9625 12.15 22 11.75 22ZM17 21C16.7167 21 16.4792 20.9042 16.2875 20.7125C16.0958 20.5208 16 20.2833 16 20V18H14C13.7167 18 13.4792 17.9042 13.2875 17.7125C13.0958 17.5208 13 17.2833 13 17C13 16.7167 13.0958 16.4792 13.2875 16.2875C13.4792 16.0958 13.7167 16 14 16H16V14C16 13.7167 16.0958 13.4792 16.2875 13.2875C16.4792 13.0958 16.7167 13 17 13C17.2833 13 17.5208 13.0958 17.7125 13.2875C17.9042 13.4792 18 13.7167 18 14V16H20C20.2833 16 20.5208 16.0958 20.7125 16.2875C20.9042 16.4792 21 16.7167 21 17C21 17.2833 20.9042 17.5208 20.7125 17.7125C20.5208 17.9042 20.2833 18 20 18H18V20C18 20.2833 17.9042 20.5208 17.7125 20.7125C17.5208 20.9042 17.2833 21 17 21ZM10 17C9.71667 17 9.47917 16.9042 9.2875 16.7125C9.09583 16.5208 9 16.2833 9 16V7C9 6.71667 9.09583 6.47917 9.2875 6.2875C9.47917 6.09583 9.71667 6 10 6C10.2833 6 10.5208 6.09583 10.7125 6.2875C10.9042 6.47917 11 6.71667 11 7V16C11 16.2833 10.9042 16.5208 10.7125 16.7125C10.5208 16.9042 10.2833 17 10 17ZM17 11C16.7167 11 16.4792 10.9042 16.2875 10.7125C16.0958 10.5208 16 10.2833 16 10V7C16 6.71667 16.0958 6.47917 16.2875 6.2875C16.4792 6.09583 16.7167 6 17 6C17.2833 6 17.5208 6.09583 17.7125 6.2875C17.9042 6.47917 18 6.71667 18 7V10C18 10.2833 17.9042 10.5208 17.7125 10.7125C17.5208 10.9042 17.2833 11 17 11Z" fill="#1A1A1A"/>
</svg>
