<svg width="24" height="24" viewBox="0 0 24 24" fill="none" xmlns="http://www.w3.org/2000/svg">
<path d="M12.725 12.2L14.5 11.125L16.275 12.2C16.375 12.2667 16.4708 12.2667 16.5625 12.2C16.6542 12.1333 16.6833 12.0417 16.65 11.925L16.175 9.9L17.725 8.55C17.8083 8.46667 17.8375 8.37917 17.8125 8.2875C17.7875 8.19583 17.7167 8.14167 17.6 8.125L15.55 7.95L14.725 6.05C14.6917 5.95 14.6167 5.9 14.5 5.9C14.3833 5.9 14.3083 5.95 14.275 6.05L13.45 7.95L11.4 8.125C11.2833 8.14167 11.2125 8.19583 11.1875 8.2875C11.1625 8.37917 11.1917 8.46667 11.275 8.55L12.825 9.9L12.35 11.925C12.3167 12.0417 12.3458 12.1333 12.4375 12.2C12.5292 12.2667 12.625 12.2667 12.725 12.2ZM9.00001 17C8.45001 17 7.97918 16.8042 7.58751 16.4125C7.19584 16.0208 7.00001 15.55 7.00001 15V4C7.00001 3.45 7.19584 2.97917 7.58751 2.5875C7.97918 2.19583 8.45001 2 9.00001 2H20C20.55 2 21.0208 2.19583 21.4125 2.5875C21.8042 2.97917 22 3.45 22 4V15C22 15.55 21.8042 16.0208 21.4125 16.4125C21.0208 16.8042 20.55 17 20 17H9.00001ZM9.00001 15H20V4H9.00001V15ZM5.70001 21.875C5.15001 21.9417 4.65418 21.8083 4.21251 21.475C3.77084 21.1417 3.51668 20.7 3.45001 20.15L2.12501 9.225C2.05834 8.675 2.20001 8.18333 2.55001 7.75C2.90001 7.31667 3.35001 7.05833 3.90001 6.975H3.95001C4.23334 6.925 4.48751 7 4.71251 7.2C4.93751 7.4 5.05001 7.65 5.05001 7.95C5.05001 8.2 4.96251 8.41667 4.78751 8.6C4.61251 8.78333 4.40001 8.9 4.15001 8.95H4.12501L5.47501 19.9L17.325 18.45C17.6083 18.4167 17.8583 18.4833 18.075 18.65C18.2917 18.8167 18.4167 19.0417 18.45 19.325C18.4833 19.6083 18.4167 19.8542 18.25 20.0625C18.0833 20.2708 17.8583 20.3917 17.575 20.425L5.70001 21.875Z" fill="#1A1A1A"/>
</svg>
