<svg width="24" height="24" viewBox="0 0 24 24" fill="none" xmlns="http://www.w3.org/2000/svg">
<path d="M9.00024 16C9.55024 16 10.0211 15.8042 10.4127 15.4125C10.8044 15.0208 11.0002 14.55 11.0002 14C11.0002 13.45 10.8044 12.9792 10.4127 12.5875C10.0211 12.1958 9.55024 12 9.00024 12C8.45024 12 7.97941 12.1958 7.58774 12.5875C7.19608 12.9792 7.00024 13.45 7.00024 14C7.00024 14.55 7.19608 15.0208 7.58774 15.4125C7.97941 15.8042 8.45024 16 9.00024 16ZM15.0002 16C15.5502 16 16.0211 15.8042 16.4127 15.4125C16.8044 15.0208 17.0002 14.55 17.0002 14C17.0002 13.45 16.8044 12.9792 16.4127 12.5875C16.0211 12.1958 15.5502 12 15.0002 12C14.4502 12 13.9794 12.1958 13.5877 12.5875C13.1961 12.9792 13.0002 13.45 13.0002 14C13.0002 14.55 13.1961 15.0208 13.5877 15.4125C13.9794 15.8042 14.4502 16 15.0002 16ZM12.0002 11C12.5502 11 13.0211 10.8042 13.4127 10.4125C13.8044 10.0208 14.0002 9.55 14.0002 9C14.0002 8.45 13.8044 7.97917 13.4127 7.5875C13.0211 7.19583 12.5502 7 12.0002 7C11.4502 7 10.9794 7.19583 10.5877 7.5875C10.1961 7.97917 10.0002 8.45 10.0002 9C10.0002 9.55 10.1961 10.0208 10.5877 10.4125C10.9794 10.8042 11.4502 11 12.0002 11ZM12.0002 22C10.6169 22 9.31691 21.7375 8.10024 21.2125C6.88358 20.6875 5.82524 19.975 4.92524 19.075C4.02524 18.175 3.31274 17.1167 2.78774 15.9C2.26274 14.6833 2.00024 13.3833 2.00024 12C2.00024 10.6167 2.26274 9.31667 2.78774 8.1C3.31274 6.88333 4.02524 5.825 4.92524 4.925C5.82524 4.025 6.88358 3.3125 8.10024 2.7875C9.31691 2.2625 10.6169 2 12.0002 2C13.3836 2 14.6836 2.2625 15.9002 2.7875C17.1169 3.3125 18.1752 4.025 19.0752 4.925C19.9752 5.825 20.6877 6.88333 21.2127 8.1C21.7377 9.31667 22.0002 10.6167 22.0002 12C22.0002 13.3833 21.7377 14.6833 21.2127 15.9C20.6877 17.1167 19.9752 18.175 19.0752 19.075C18.1752 19.975 17.1169 20.6875 15.9002 21.2125C14.6836 21.7375 13.3836 22 12.0002 22ZM12.0002 20C14.2336 20 16.1252 19.225 17.6752 17.675C19.2252 16.125 20.0002 14.2333 20.0002 12C20.0002 9.76667 19.2252 7.875 17.6752 6.325C16.1252 4.775 14.2336 4 12.0002 4C9.76691 4 7.87524 4.775 6.32524 6.325C4.77524 7.875 4.00024 9.76667 4.00024 12C4.00024 14.2333 4.77524 16.125 6.32524 17.675C7.87524 19.225 9.76691 20 12.0002 20Z" fill="#1A1A1A"/>
</svg>
