<svg width="24" height="24" viewBox="0 0 24 24" fill="none" xmlns="http://www.w3.org/2000/svg">
<path d="M12.075 17.575L14.4 15.25C14.6 15.05 14.8417 14.95 15.125 14.95C15.4083 14.95 15.65 15.05 15.85 15.25C16.05 15.45 16.15 15.6917 16.15 15.975C16.15 16.2583 16.05 16.5 15.85 16.7L12.775 19.775C12.675 19.875 12.5667 19.9458 12.45 19.9875C12.3333 20.0292 12.2083 20.05 12.075 20.05C11.9417 20.05 11.8167 20.0292 11.7 19.9875C11.5833 19.9458 11.475 19.875 11.375 19.775L8.3 16.7C8.1 16.5 8 16.2583 8 15.975C8 15.6917 8.1 15.45 8.3 15.25C8.5 15.05 8.74167 14.95 9.025 14.95C9.30833 14.95 9.55 15.05 9.75 15.25L12.075 17.575ZM12.075 5.475L9.75 7.8C9.55 8 9.30833 8.1 9.025 8.1C8.74167 8.1 8.5 8 8.3 7.8C8.1 7.6 8 7.35833 8 7.075C8 6.79167 8.1 6.55 8.3 6.35L11.375 3.275C11.475 3.175 11.5833 3.10417 11.7 3.0625C11.8167 3.02083 11.9417 3 12.075 3C12.2083 3 12.3333 3.02083 12.45 3.0625C12.5667 3.10417 12.675 3.175 12.775 3.275L15.85 6.35C16.05 6.55 16.15 6.79167 16.15 7.075C16.15 7.35833 16.05 7.6 15.85 7.8C15.65 8 15.4083 8.1 15.125 8.1C14.8417 8.1 14.6 8 14.4 7.8L12.075 5.475Z" fill="#1A1A1A"/>
</svg>
