<svg width="29" height="29" viewBox="0 0 29 29" fill="none" xmlns="http://www.w3.org/2000/svg">
<path d="M2.95573 16.6502C1.35362 16.6502 0.0600586 15.3566 0.0600586 13.7545C0.0600586 12.9831 0.368613 12.2474 0.902651 11.7133L11.7733 0.854566C12.9363 -0.249111 14.7639 -0.201641 15.8676 0.961373C16.9238 2.07692 16.9238 3.83331 15.8676 4.94885L5.0088 15.7957C4.4629 16.3416 3.72711 16.6383 2.95573 16.6383V16.6502Z" fill="#CE3677"/>
<path d="M2.89567 16.674C4.4949 16.674 5.79134 15.3776 5.79134 13.7784C5.79134 12.1791 4.4949 10.8827 2.89567 10.8827C1.29643 10.8827 0 12.1791 0 13.7784C0 15.3776 1.29643 16.674 2.89567 16.674Z" fill="#CE3677"/>
<path d="M13.778 5.79134C15.3772 5.79134 16.6737 4.4949 16.6737 2.89567C16.6737 1.29643 15.3772 0 13.778 0C12.1788 0 10.8823 1.29643 10.8823 2.89567C10.8823 4.4949 12.1788 5.79134 13.778 5.79134Z" fill="#CE3677"/>
<path d="M14.8815 28.576C13.2794 28.576 11.9858 27.2824 11.9858 25.6803C11.9858 24.9089 12.2944 24.1732 12.8284 23.6391L23.6872 12.7804C24.8146 11.6529 26.6541 11.6411 27.7815 12.7804C28.9089 13.9078 28.9207 15.7472 27.7815 16.8746L16.9227 27.7334C16.3768 28.2793 15.641 28.5879 14.8696 28.5879L14.8815 28.576Z" fill="#CE3677"/>
<path d="M14.8464 28.6368C16.4456 28.6368 17.742 27.3404 17.742 25.7412C17.742 24.1419 16.4456 22.8455 14.8464 22.8455C13.2471 22.8455 11.9507 24.1419 11.9507 25.7412C11.9507 27.3404 13.2471 28.6368 14.8464 28.6368Z" fill="#CE3677"/>
<path d="M25.7404 17.7541C27.3396 17.7541 28.6361 16.4577 28.6361 14.8585C28.6361 13.2592 27.3396 11.9628 25.7404 11.9628C24.1412 11.9628 22.8447 13.2592 22.8447 14.8585C22.8447 16.4577 24.1412 17.7541 25.7404 17.7541Z" fill="#CE3677"/>
<path d="M5.36393 26.1798C3.76182 26.1798 2.46826 24.8862 2.46826 23.2841C2.46826 22.5127 2.77682 21.7769 3.31085 21.2429L21.2901 3.25179C22.4413 2.13625 24.2688 2.15998 25.3844 3.31113C26.4762 4.43854 26.4762 6.23053 25.3844 7.34608L7.40514 25.3253C6.85923 25.8712 6.12345 26.1679 5.35206 26.1679L5.36393 26.1798Z" fill="#CE3677"/>
<path opacity="0.5" d="M13.8371 17.6823C15.4363 17.6823 16.7327 16.3859 16.7327 14.7867C16.7327 13.1874 15.4363 11.891 13.8371 11.891C12.2378 11.891 10.9414 13.1874 10.9414 14.7867C10.9414 16.3859 12.2378 17.6823 13.8371 17.6823Z" fill="#CE3677"/>
<path d="M23.2839 8.24696C24.8831 8.24696 26.1795 6.95053 26.1795 5.3513C26.1795 3.75206 24.8831 2.45563 23.2839 2.45563C21.6846 2.45563 20.3882 3.75206 20.3882 5.3513C20.3882 6.95053 21.6846 8.24696 23.2839 8.24696Z" fill="#CE3677"/>
<path d="M5.41129 26.1095C7.01053 26.1095 8.30696 24.813 8.30696 23.2138C8.30696 21.6146 7.01053 20.3181 5.41129 20.3181C3.81206 20.3181 2.51562 21.6146 2.51562 23.2138C2.51562 24.813 3.81206 26.1095 5.41129 26.1095Z" fill="#CE3677"/>
</svg>
