<svg width="20" height="20" viewBox="0 0 20 20" fill="none" xmlns="http://www.w3.org/2000/svg">
<path d="M2.06399 11.6286C0.945058 11.6286 0.041626 10.7252 0.041626 9.60627C0.041626 9.06752 0.257124 8.55364 0.6301 8.18067L8.22225 0.596809C9.03451 -0.17401 10.3109 -0.140856 11.0817 0.671404C11.8194 1.45051 11.8194 2.67719 11.0817 3.4563L3.49788 11.0319C3.11661 11.4131 2.60273 11.6203 2.06399 11.6203V11.6286Z" fill="white"/>
<path d="M2.02236 11.6453C3.13928 11.6453 4.04472 10.7399 4.04472 9.62298C4.04472 8.50606 3.13928 7.60062 2.02236 7.60062C0.905442 7.60062 0 8.50606 0 9.62298C0 10.7399 0.905442 11.6453 2.02236 11.6453Z" fill="white"/>
<path d="M9.6227 4.04472C10.7396 4.04472 11.6451 3.13928 11.6451 2.02236C11.6451 0.905442 10.7396 0 9.6227 0C8.50578 0 7.60034 0.905442 7.60034 2.02236C7.60034 3.13928 8.50578 4.04472 9.6227 4.04472Z" fill="white"/>
<path d="M10.3935 19.9578C9.27453 19.9578 8.37109 19.0544 8.37109 17.9354C8.37109 17.3967 8.58659 16.8828 8.95957 16.5098L16.5434 8.92596C17.3308 8.13857 18.6155 8.13028 19.4029 8.92596C20.1903 9.71336 20.1986 10.9981 19.4029 11.7855L11.8191 19.3693C11.4378 19.7506 10.9239 19.9661 10.3852 19.9661L10.3935 19.9578Z" fill="white"/>
<path d="M10.3688 20.0003C11.4857 20.0003 12.3912 19.0948 12.3912 17.9779C12.3912 16.861 11.4857 15.9556 10.3688 15.9556C9.25188 15.9556 8.34644 16.861 8.34644 17.9779C8.34644 19.0948 9.25188 20.0003 10.3688 20.0003Z" fill="white"/>
<path d="M17.9776 12.3997C19.0945 12.3997 19.9999 11.4942 19.9999 10.3773C19.9999 9.26039 19.0945 8.35495 17.9776 8.35495C16.8606 8.35495 15.9552 9.26039 15.9552 10.3773C15.9552 11.4942 16.8606 12.3997 17.9776 12.3997Z" fill="white"/>
<path d="M3.74624 18.2842C2.62731 18.2842 1.72388 17.3808 1.72388 16.2618C1.72388 15.7231 1.93937 15.2092 2.31235 14.8362L14.8692 2.27107C15.6732 1.49196 16.9496 1.50854 17.7287 2.31251C18.4912 3.09991 18.4912 4.35145 17.7287 5.13056L5.17184 17.6874C4.79057 18.0687 4.2767 18.2759 3.73795 18.2759L3.74624 18.2842Z" fill="white"/>
<path opacity="0.5" d="M9.66396 12.3495C10.7809 12.3495 11.6863 11.4441 11.6863 10.3272C11.6863 9.21025 10.7809 8.30481 9.66396 8.30481C8.54704 8.30481 7.6416 9.21025 7.6416 10.3272C7.6416 11.4441 8.54704 12.3495 9.66396 12.3495Z" fill="white"/>
<path d="M16.2616 5.75975C17.3785 5.75975 18.284 4.85431 18.284 3.73739C18.284 2.62047 17.3785 1.71503 16.2616 1.71503C15.1447 1.71503 14.2393 2.62047 14.2393 3.73739C14.2393 4.85431 15.1447 5.75975 16.2616 5.75975Z" fill="white"/>
<path d="M3.77932 18.2351C4.89624 18.2351 5.80168 17.3297 5.80168 16.2128C5.80168 15.0958 4.89624 14.1904 3.77932 14.1904C2.6624 14.1904 1.75696 15.0958 1.75696 16.2128C1.75696 17.3297 2.6624 18.2351 3.77932 18.2351Z" fill="white"/>
</svg>
