<svg width="24" height="24" viewBox="0 0 24 24" fill="none" xmlns="http://www.w3.org/2000/svg">
<path d="M17 1.01L7 1C5.9 1 5 1.9 5 3V21C5 22.1 5.9 23 7 23H17C18.1 23 19 22.1 19 21V3C19 1.9 18.1 1.01 17 1.01ZM17 18H7V6H17V18ZM14.79 12.21H13V9C13 8.45 12.55 8 12 8C11.45 8 11 8.45 11 9V12.21H9.21C8.76 12.21 8.54 12.75 8.86 13.06L11.65 15.85C11.85 16.05 12.16 16.05 12.36 15.85L15.15 13.06C15.2191 12.9895 15.2658 12.9001 15.2842 12.8031C15.3026 12.7062 15.2918 12.6059 15.2533 12.515C15.2148 12.4241 15.1503 12.3466 15.0678 12.2923C14.9854 12.2381 14.8887 12.2094 14.79 12.21Z" fill="white"/>
</svg>
