<svg width="24" height="24" viewBox="0 0 24 24" fill="none" xmlns="http://www.w3.org/2000/svg">
<path d="M4.62593 3.93722C5.91254 2.65795 8.02328 2.88999 9.09468 4.32003H9.09565L10.3554 6.00362C11.2278 7.16897 11.1533 8.802 10.1123 9.83565L10.1113 9.83468L9.90522 10.0407C9.90386 10.0482 9.90143 10.0572 9.90034 10.0681C9.89681 10.1034 9.89567 10.1627 9.90913 10.2497C9.96516 10.6112 10.2797 11.4477 11.6982 12.8581C13.1159 14.2677 13.9588 14.5837 14.3271 14.6403C14.416 14.654 14.4776 14.6518 14.5146 14.6482C14.5267 14.647 14.5367 14.6438 14.5449 14.6423L14.9218 14.2683L14.9228 14.2673C15.79 13.4058 17.0882 13.204 18.1855 13.6911L18.4013 13.7976L18.4033 13.7985L20.3125 14.8366L20.4697 14.9284C22.0571 15.916 22.4283 18.156 21.0546 19.5202L19.6357 20.9333C19.1702 21.3972 18.537 21.7877 17.7587 21.8601C15.9715 22.0267 11.9133 21.8212 7.59858 17.7692L7.18061 17.365C3.27696 13.4827 2.3213 10.0555 2.13276 8.15499L2.10444 7.79561C2.05091 6.84735 2.49908 6.05301 3.05562 5.49776L3.05659 5.49581L4.62593 3.93722ZM7.65425 5.39913C7.19761 4.78969 6.35875 4.75221 5.89546 5.21261V5.21358L4.32515 6.77315C4.01663 7.0815 3.88487 7.40273 3.90132 7.69405C3.97903 9.06318 4.60543 12.2659 8.44917 16.0886C12.4738 20.0895 16.1793 20.2009 17.5927 20.0691C17.8459 20.0454 18.1088 19.9126 18.3652 19.6569H18.3662L19.7871 18.2439C20.2569 17.7771 20.1998 16.9331 19.5839 16.4997L19.4531 16.4187L17.5429 15.3796V15.3786C17.1292 15.1549 16.661 15.1951 16.3261 15.4314L16.1914 15.5437L15.7373 15.9968H15.7363L15.1015 15.3591C15.732 15.9937 15.7352 15.9979 15.7343 15.9987L15.7324 16.0007C15.7313 16.0018 15.7306 16.0035 15.7294 16.0046C15.727 16.0069 15.7242 16.009 15.7216 16.0114C15.7163 16.0165 15.7101 16.0215 15.7041 16.0271C15.6919 16.0381 15.6784 16.0505 15.663 16.0632C15.6322 16.0887 15.5941 16.1175 15.5498 16.1472C15.4608 16.2067 15.3446 16.2702 15.2001 16.3239C14.9047 16.4339 14.5219 16.4904 14.0546 16.4187C13.1425 16.2787 11.9666 15.6626 10.4296 14.1345C8.89351 12.6072 8.27111 11.4371 8.12983 10.5261C8.05743 10.059 8.11503 9.67543 8.22651 9.3796C8.28104 9.23503 8.34603 9.11877 8.4062 9.02999C8.43623 8.9857 8.46539 8.94744 8.49116 8.91671C8.50391 8.90153 8.51623 8.8877 8.52729 8.87569C8.53274 8.86979 8.53795 8.86425 8.54292 8.85909C8.54546 8.85645 8.54832 8.85372 8.55073 8.85128C8.55188 8.85011 8.55254 8.8485 8.55366 8.84737L8.55561 8.8464L8.8437 8.55831C9.21658 8.18806 9.2754 7.56438 8.91401 7.08175L7.65425 5.39913ZM9.82808 10.1189H9.8271L9.82905 10.1179C9.83011 10.1168 9.83193 10.116 9.83296 10.1149C9.83506 10.1128 9.83683 10.1102 9.83882 10.1081L9.82808 10.1189Z" fill="#1A1A1A"/>
</svg>
