<svg width="24" height="24" viewBox="0 0 24 24" fill="none" xmlns="http://www.w3.org/2000/svg">
<path d="M9 11.4995H8.25C8.03333 11.4995 7.85417 11.4287 7.7125 11.287C7.57083 11.1454 7.5 10.9662 7.5 10.7495C7.5 10.5329 7.57083 10.3537 7.7125 10.212C7.85417 10.0704 8.03333 9.99952 8.25 9.99952H9.75C9.96667 9.99952 10.1458 10.0704 10.2875 10.212C10.4292 10.3537 10.5 10.5329 10.5 10.7495V15.2495C10.5 15.4662 10.4292 15.6454 10.2875 15.787C10.1458 15.9287 9.96667 15.9995 9.75 15.9995C9.53333 15.9995 9.35417 15.9287 9.2125 15.787C9.07083 15.6454 9 15.4662 9 15.2495V11.4995ZM12.5 15.9995C12.2167 15.9995 11.9792 15.9037 11.7875 15.712C11.5958 15.5204 11.5 15.2829 11.5 14.9995V10.9995C11.5 10.7162 11.5958 10.4787 11.7875 10.287C11.9792 10.0954 12.2167 9.99952 12.5 9.99952H14.5C14.7833 9.99952 15.0208 10.0954 15.2125 10.287C15.4042 10.4787 15.5 10.7162 15.5 10.9995V14.9995C15.5 15.2829 15.4042 15.5204 15.2125 15.712C15.0208 15.9037 14.7833 15.9995 14.5 15.9995H12.5ZM13 14.4995H14V11.4995H13V14.4995ZM12 21.9995C10.75 21.9995 9.57917 21.762 8.4875 21.287C7.39583 20.812 6.44583 20.1704 5.6375 19.362C4.82917 18.5537 4.1875 17.6037 3.7125 16.512C3.2375 15.4204 3 14.2495 3 12.9995C3 12.7162 3.09583 12.4787 3.2875 12.287C3.47917 12.0954 3.71667 11.9995 4 11.9995C4.28333 11.9995 4.52083 12.0954 4.7125 12.287C4.90417 12.4787 5 12.7162 5 12.9995C5 14.9495 5.67917 16.6037 7.0375 17.962C8.39583 19.3204 10.05 19.9995 12 19.9995C13.95 19.9995 15.6042 19.3204 16.9625 17.962C18.3208 16.6037 19 14.9495 19 12.9995C19 11.0495 18.3208 9.39536 16.9625 8.03702C15.6042 6.67869 13.95 5.99952 12 5.99952H11.85L12.7 6.84952C12.9 7.04952 12.9958 7.28286 12.9875 7.54952C12.9792 7.81619 12.8833 8.04952 12.7 8.24952C12.5 8.44952 12.2625 8.55369 11.9875 8.56202C11.7125 8.57036 11.475 8.47452 11.275 8.27452L8.7 5.69952C8.5 5.49952 8.4 5.26619 8.4 4.99952C8.4 4.73286 8.5 4.49952 8.7 4.29952L11.275 1.72452C11.475 1.52452 11.7125 1.42869 11.9875 1.43702C12.2625 1.44536 12.5 1.54952 12.7 1.74952C12.8833 1.94952 12.9792 2.18286 12.9875 2.44952C12.9958 2.71619 12.9 2.94952 12.7 3.14952L11.85 3.99952H12C13.25 3.99952 14.4208 4.23702 15.5125 4.71202C16.6042 5.18702 17.5542 5.82869 18.3625 6.63702C19.1708 7.44536 19.8125 8.39536 20.2875 9.48702C20.7625 10.5787 21 11.7495 21 12.9995C21 14.2495 20.7625 15.4204 20.2875 16.512C19.8125 17.6037 19.1708 18.5537 18.3625 19.362C17.5542 20.1704 16.6042 20.812 15.5125 21.287C14.4208 21.762 13.25 21.9995 12 21.9995Z" fill="#1A1A1A"/>
</svg>
