<svg width="24" height="24" viewBox="0 0 24 24" fill="none" xmlns="http://www.w3.org/2000/svg">
<path d="M9.00005 12.9998C8.71672 12.9998 8.47922 12.904 8.28755 12.7123C8.09588 12.5206 8.00005 12.2831 8.00005 11.9998V5.8248L6.12505 7.6998C5.94172 7.88314 5.71255 7.9748 5.43755 7.9748C5.16255 7.9748 4.92505 7.88314 4.72505 7.6998C4.52505 7.4998 4.42505 7.2623 4.42505 6.9873C4.42505 6.7123 4.52505 6.4748 4.72505 6.2748L8.30005 2.6998C8.40005 2.5998 8.50838 2.52897 8.62505 2.4873C8.74172 2.44564 8.86672 2.4248 9.00005 2.4248C9.13338 2.4248 9.25838 2.44564 9.37505 2.4873C9.49172 2.52897 9.60005 2.5998 9.70005 2.6998L13.3 6.2998C13.5 6.4998 13.5959 6.73314 13.5875 6.9998C13.5792 7.26647 13.475 7.4998 13.275 7.6998C13.075 7.88314 12.8417 7.97897 12.575 7.9873C12.3084 7.99564 12.075 7.8998 11.875 7.6998L10 5.8248V11.9998C10 12.2831 9.90422 12.5206 9.71255 12.7123C9.52088 12.904 9.28338 12.9998 9.00005 12.9998ZM15 21.5748C14.8667 21.5748 14.7417 21.554 14.625 21.5123C14.5084 21.4706 14.4 21.3998 14.3 21.2998L10.7 17.6998C10.5 17.4998 10.4042 17.2665 10.4125 16.9998C10.4209 16.7331 10.525 16.4998 10.725 16.2998C10.925 16.1165 11.1584 16.0206 11.425 16.0123C11.6917 16.004 11.925 16.0998 12.125 16.2998L14 18.1748V11.9998C14 11.7165 14.0959 11.479 14.2875 11.2873C14.4792 11.0956 14.7167 10.9998 15 10.9998C15.2834 10.9998 15.5209 11.0956 15.7125 11.2873C15.9042 11.479 16 11.7165 16 11.9998V18.1748L17.875 16.2998C18.0584 16.1165 18.2875 16.0248 18.5625 16.0248C18.8375 16.0248 19.075 16.1165 19.275 16.2998C19.475 16.4998 19.575 16.7373 19.575 17.0123C19.575 17.2873 19.475 17.5248 19.275 17.7248L15.7 21.2998C15.6 21.3998 15.4917 21.4706 15.375 21.5123C15.2584 21.554 15.1334 21.5748 15 21.5748Z" fill="#1A1A1A"/>
</svg>
