<svg width="24" height="24" viewBox="0 0 24 24" fill="none" xmlns="http://www.w3.org/2000/svg">
<path d="M12 21.9996C10.75 21.9996 9.57914 21.7621 8.48748 21.2871C7.39581 20.8121 6.44581 20.1704 5.63748 19.3621C4.82914 18.5538 4.18748 17.6038 3.71248 16.5121C3.23748 15.4204 2.99998 14.2496 2.99998 12.9996C2.99998 11.7496 3.23748 10.5788 3.71248 9.48711C4.18748 8.39544 4.82914 7.44544 5.63748 6.63711C6.44581 5.82878 7.39581 5.18711 8.48748 4.71211C9.57914 4.23711 10.75 3.99961 12 3.99961C13.25 3.99961 14.4208 4.23711 15.5125 4.71211C16.6041 5.18711 17.5541 5.82878 18.3625 6.63711C19.1708 7.44544 19.8125 8.39544 20.2875 9.48711C20.7625 10.5788 21 11.7496 21 12.9996C21 14.2496 20.7625 15.4204 20.2875 16.5121C19.8125 17.6038 19.1708 18.5538 18.3625 19.3621C17.5541 20.1704 16.6041 20.8121 15.5125 21.2871C14.4208 21.7621 13.25 21.9996 12 21.9996ZM14.8 17.1996L16.2 15.7996L13 12.5996V7.99961H11V13.3996L14.8 17.1996ZM5.59998 2.34961L6.99998 3.74961L2.74998 7.99961L1.34998 6.59961L5.59998 2.34961ZM18.4 2.34961L22.65 6.59961L21.25 7.99961L17 3.74961L18.4 2.34961ZM12 19.9996C13.95 19.9996 15.6041 19.3204 16.9625 17.9621C18.3208 16.6038 19 14.9496 19 12.9996C19 11.0496 18.3208 9.39544 16.9625 8.03711C15.6041 6.67878 13.95 5.99961 12 5.99961C10.05 5.99961 8.39581 6.67878 7.03748 8.03711C5.67914 9.39544 4.99998 11.0496 4.99998 12.9996C4.99998 14.9496 5.67914 16.6038 7.03748 17.9621C8.39581 19.3204 10.05 19.9996 12 19.9996Z" fill="#1A1A1A"/>
</svg>
