<svg width="24" height="24" viewBox="0 0 24 24" fill="none" xmlns="http://www.w3.org/2000/svg">
<path d="M18.6 15.9998L13.4 10.8498L10.825 13.4248C10.4417 13.8081 9.96665 13.9998 9.39999 13.9998C8.83332 13.9998 8.35832 13.8081 7.97499 13.4248L2.69999 8.0998C2.51665 7.91647 2.42082 7.6873 2.41249 7.4123C2.40415 7.1373 2.49999 6.8998 2.69999 6.6998C2.88332 6.51647 3.11665 6.4248 3.39999 6.4248C3.68332 6.4248 3.91665 6.51647 4.09999 6.6998L9.39999 11.9998L11.975 9.4248C12.3583 9.04147 12.8333 8.8498 13.4 8.8498C13.9667 8.8498 14.4417 9.04147 14.825 9.4248L20 14.5998V12.9998C20 12.7165 20.0958 12.479 20.2875 12.2873C20.4792 12.0956 20.7167 11.9998 21 11.9998C21.2833 11.9998 21.5208 12.0956 21.7125 12.2873C21.9042 12.479 22 12.7165 22 12.9998V16.9998C22 17.2831 21.9042 17.5206 21.7125 17.7123C21.5208 17.904 21.2833 17.9998 21 17.9998H17C16.7167 17.9998 16.4792 17.904 16.2875 17.7123C16.0958 17.5206 16 17.2831 16 16.9998C16 16.7165 16.0958 16.479 16.2875 16.2873C16.4792 16.0956 16.7167 15.9998 17 15.9998H18.6Z" fill="#1A1A1A"/>
</svg>
