<svg width="24" height="24" viewBox="0 0 24 24" fill="none" xmlns="http://www.w3.org/2000/svg">
<path d="M2.69999 17.6252C2.49999 17.4252 2.40415 17.1877 2.41249 16.9127C2.42082 16.6377 2.51665 16.4085 2.69999 16.2252L7.97499 10.8752C8.35832 10.4919 8.83332 10.3002 9.39999 10.3002C9.96665 10.3002 10.4417 10.4919 10.825 10.8752L13.4 13.4752L18.6 8.3252H17C16.7167 8.3252 16.4792 8.22936 16.2875 8.0377C16.0958 7.84603 16 7.60853 16 7.3252C16 7.04186 16.0958 6.80436 16.2875 6.6127C16.4792 6.42103 16.7167 6.3252 17 6.3252H21C21.2833 6.3252 21.5208 6.42103 21.7125 6.6127C21.9042 6.80436 22 7.04186 22 7.3252V11.3252C22 11.6085 21.9042 11.846 21.7125 12.0377C21.5208 12.2294 21.2833 12.3252 21 12.3252C20.7167 12.3252 20.4792 12.2294 20.2875 12.0377C20.0958 11.846 20 11.6085 20 11.3252V9.7252L14.825 14.9002C14.4417 15.2835 13.9667 15.4752 13.4 15.4752C12.8333 15.4752 12.3583 15.2835 11.975 14.9002L9.39999 12.3252L4.09999 17.6252C3.91665 17.8085 3.68332 17.9002 3.39999 17.9002C3.11665 17.9002 2.88332 17.8085 2.69999 17.6252Z" fill="#1A1A1A"/>
</svg>
