<svg width="24" height="24" viewBox="0 0 24 24" fill="none" xmlns="http://www.w3.org/2000/svg">
<path d="M16.15 13.0501L14 16.5001C13.8166 16.7834 13.5625 16.9001 13.2375 16.8501C12.9125 16.8001 12.7083 16.6084 12.625 16.2751L11.925 13.4751L5.09995 20.3001C4.91662 20.4834 4.68745 20.5792 4.41245 20.5876C4.13745 20.5959 3.89995 20.5001 3.69995 20.3001C3.51662 20.1167 3.42495 19.8834 3.42495 19.6001C3.42495 19.3167 3.51662 19.0834 3.69995 18.9001L10.525 12.0501L7.72495 11.3501C7.39162 11.2667 7.19995 11.0626 7.14995 10.7376C7.09995 10.4126 7.21662 10.1584 7.49995 9.97505L10.95 7.85005L10.65 3.77505C10.6166 3.44172 10.75 3.20005 11.05 3.05005C11.35 2.90005 11.625 2.93339 11.875 3.15005L15 5.77505L18.775 4.25005C19.0916 4.11672 19.3666 4.16672 19.6 4.40005C19.8333 4.63339 19.8833 4.90839 19.75 5.22505L18.225 9.00005L20.85 12.1001C21.0666 12.3501 21.1 12.6251 20.95 12.9251C20.8 13.2251 20.5583 13.3584 20.225 13.3251L16.15 13.0501ZM3.34995 6.35005C3.24995 6.25005 3.19995 6.13339 3.19995 6.00005C3.19995 5.86672 3.24995 5.75005 3.34995 5.65005L4.64995 4.35005C4.74995 4.25005 4.86662 4.20005 4.99995 4.20005C5.13328 4.20005 5.24995 4.25005 5.34995 4.35005L6.64995 5.65005C6.74995 5.75005 6.79995 5.86672 6.79995 6.00005C6.79995 6.13339 6.74995 6.25005 6.64995 6.35005L5.34995 7.65005C5.24995 7.75005 5.13328 7.80005 4.99995 7.80005C4.86662 7.80005 4.74995 7.75005 4.64995 7.65005L3.34995 6.35005ZM13.875 12.9251L15.075 10.9501L17.4 11.1251L15.9 9.35005L16.775 7.20005L14.625 8.07505L12.85 6.60005L13.025 8.90005L11.05 10.1251L13.3 10.6751L13.875 12.9251ZM17.65 20.6501L16.35 19.3501C16.25 19.2501 16.2 19.1334 16.2 19.0001C16.2 18.8667 16.25 18.7501 16.35 18.6501L17.65 17.3501C17.75 17.2501 17.8666 17.2001 18 17.2001C18.1333 17.2001 18.25 17.2501 18.35 17.3501L19.65 18.6501C19.75 18.7501 19.8 18.8667 19.8 19.0001C19.8 19.1334 19.75 19.2501 19.65 19.3501L18.35 20.6501C18.25 20.7501 18.1333 20.8001 18 20.8001C17.8666 20.8001 17.75 20.7501 17.65 20.6501Z" fill="#1A1A1A"/>
</svg>
