<svg preserveAspectRatio="none" width="100%" height="100%" overflow="visible" style="display: block;" viewBox="0 0 16.6855 16.7066" fill="none" xmlns="http://www.w3.org/2000/svg">
<g id="Group">
<path id="Vector" d="M2.93093 16.6456C1.32882 16.6456 0.0352656 15.3521 0.0352656 13.75C0.0352656 12.9786 0.34382 12.2428 0.877857 11.7088L11.7366 0.850015C12.864 -0.277397 14.7035 -0.289264 15.8309 0.850015C16.9583 1.97743 16.9702 3.81689 15.8309 4.9443L4.97214 15.8031C4.42624 16.349 3.69045 16.6575 2.91907 16.6575L2.93093 16.6456Z" fill="var(--fill-0, #CE3677)"/>
<path id="Vector_2" d="M2.8957 16.7065C4.49493 16.7065 5.79137 15.41 5.79137 13.8108C5.79137 12.2116 4.49493 10.9151 2.8957 10.9151C1.29646 10.9151 2.92427e-05 12.2116 2.92427e-05 13.8108C2.92427e-05 15.41 1.29646 16.7065 2.8957 16.7065Z" fill="var(--fill-0, #CE3677)"/>
<path id="Vector_3" d="M13.7899 5.82377C15.3891 5.82377 16.6855 4.52734 16.6855 2.92811C16.6855 1.32887 15.3891 0.0324398 13.7899 0.0324398C12.1906 0.0324398 10.8942 1.32887 10.8942 2.92811C10.8942 4.52734 12.1906 5.82377 13.7899 5.82377Z" fill="var(--fill-0, #CE3677)"/>
</g>
</svg>
