<svg preserveAspectRatio="none" width="100%" height="100%" overflow="visible" style="display: block;" viewBox="0 0 23.735 23.7486" fill="none" xmlns="http://www.w3.org/2000/svg">
<g id="Group">
<path id="Vector" d="M2.89567 23.7486C1.29356 23.7486 0 22.4551 0 20.853C0 20.0816 0.308555 19.3458 0.842592 18.8117L18.8218 0.820626C19.973 -0.294918 21.8006 -0.271183 22.9161 0.879963C24.0079 2.00737 24.0079 3.79937 22.9161 4.91491L4.93688 22.8942C4.39097 23.4401 3.65519 23.7367 2.8838 23.7367L2.89567 23.7486Z" fill="var(--fill-0, #CE3677)"/>
<path id="Vector_2" opacity="0.5" d="M11.3689 15.2512C12.9681 15.2512 14.2645 13.9547 14.2645 12.3555C14.2645 10.7563 12.9681 9.45982 11.3689 9.45982C9.76962 9.45982 8.47318 10.7563 8.47318 12.3555C8.47318 13.9547 9.76962 15.2512 11.3689 15.2512Z" fill="var(--fill-0, #CE3677)"/>
<path id="Vector_3" d="M20.8155 5.8158C22.4148 5.8158 23.7112 4.51936 23.7112 2.92013C23.7112 1.3209 22.4148 0.0244622 20.8155 0.0244622C19.2163 0.0244622 17.9199 1.3209 17.9199 2.92013C17.9199 4.51936 19.2163 5.8158 20.8155 5.8158Z" fill="var(--fill-0, #CE3677)"/>
<path id="Vector_4" d="M2.94318 23.6783C4.54241 23.6783 5.83885 22.3819 5.83885 20.7826C5.83885 19.1834 4.54241 17.887 2.94318 17.887C1.34394 17.887 0.0475098 19.1834 0.0475098 20.7826C0.0475098 22.3819 1.34394 23.6783 2.94318 23.6783Z" fill="var(--fill-0, #CE3677)"/>
</g>
</svg>
