<svg preserveAspectRatio="none" width="100%" height="100%" overflow="visible" style="display: block;" viewBox="0 0 16.6738 16.6742" fill="none" xmlns="http://www.w3.org/2000/svg">
<g id="Group">
<path id="Vector" d="M2.95552 16.6502C1.35341 16.6502 0.0598567 15.3566 0.0598567 13.7545C0.0598567 12.9831 0.368411 12.2474 0.902449 11.7133L11.7731 0.854569C12.9361 -0.249108 14.7637 -0.201638 15.8674 0.961376C16.9236 2.07692 16.9236 3.83331 15.8674 4.94885L5.0086 15.7957C4.4627 16.3416 3.72691 16.6383 2.95552 16.6383V16.6502Z" fill="var(--fill-0, #CE3677)"/>
<path id="Vector_2" d="M2.89568 16.674C4.49491 16.674 5.79135 15.3776 5.79135 13.7784C5.79135 12.1791 4.49491 10.8827 2.89568 10.8827C1.29645 10.8827 1.0877e-05 12.1791 1.0877e-05 13.7784C1.0877e-05 15.3776 1.29645 16.674 2.89568 16.674Z" fill="var(--fill-0, #CE3677)"/>
<path id="Vector_3" d="M13.7781 5.79134C15.3773 5.79134 16.6738 4.4949 16.6738 2.89567C16.6738 1.29643 15.3773 0 13.7781 0C12.1789 0 10.8824 1.29643 10.8824 2.89567C10.8824 4.4949 12.1789 5.79134 13.7781 5.79134Z" fill="var(--fill-0, #CE3677)"/>
</g>
</svg>
